<svg width="16" height="16" viewBox="0 0 16 16" fill="none" xmlns="http://www.w3.org/2000/svg">
<path d="M9.66249 10.5492C9.7786 10.6653 9.9211 10.7233 10.09 10.7233C10.2589 10.7233 10.4067 10.66 10.5333 10.5333C10.6494 10.4172 10.7075 10.2694 10.7075 10.09C10.7075 9.91055 10.6494 9.76277 10.5333 9.64666L8.63332 7.74666V5.45082C8.63332 5.27138 8.57274 5.1236 8.45156 5.00749C8.32996 4.89138 8.17943 4.83332 7.99999 4.83332C7.82055 4.83332 7.67023 4.89391 7.54906 5.01509C7.42746 5.13669 7.36666 5.28721 7.36666 5.46666V7.98416C7.36666 8.0686 7.38249 8.1503 7.41416 8.22926C7.44582 8.30864 7.49332 8.37999 7.55666 8.44332L9.66249 10.5492ZM7.99999 14.3333C7.12388 14.3333 6.30055 14.167 5.52999 13.8343C4.75943 13.502 4.08916 13.0508 3.51916 12.4808C2.94916 11.9108 2.49801 11.2405 2.16572 10.47C1.83301 9.69943 1.66666 8.8761 1.66666 7.99999C1.66666 7.12388 1.83301 6.30055 2.16572 5.52999C2.49801 4.75943 2.94916 4.08916 3.51916 3.51916C4.08916 2.94916 4.75943 2.4978 5.52999 2.16509C6.30055 1.8328 7.12388 1.66666 7.99999 1.66666C8.8761 1.66666 9.69943 1.8328 10.47 2.16509C11.2405 2.4978 11.9108 2.94916 12.4808 3.51916C13.0508 4.08916 13.502 4.75943 13.8343 5.52999C14.167 6.30055 14.3333 7.12388 14.3333 7.99999C14.3333 8.8761 14.167 9.69943 13.8343 10.47C13.502 11.2405 13.0508 11.9108 12.4808 12.4808C11.9108 13.0508 11.2405 13.502 10.47 13.8343C9.69943 14.167 8.8761 14.3333 7.99999 14.3333Z" fill="white"/>
</svg>
